#!OML:ASF F:\VICON\USERDATA\INSTALL\rory3\rory3.ASF
:FULLY-SPECIFIED
:DEGREES
154
root 1.01866 22.4668 -16.4892 4.32619 0.735022 -0.74392
lowerback 10.5691 -0.163843 0.00567304
upperback 0.754224 -0.086613 2.39892
thorax -5.13979 -0.0165988 2.51837
lowerneck -19.4394 -4.58344 -9.01171
upperneck 11.36 -4.81876 6.4521
head 7.01929 -2.14085 3.00315
rclavicle -7.65321e-015 -1.19271e-014
rhumerus -32.765 -4.64907 -76.0427
rradius 33.2718
rwrist 8.23635
rhand -15.7809 11.2377
rfingers 7.12502
rthumb 10.4115 -18.4845
lclavicle -7.65321e-015 -1.19271e-014
lhumerus -29.2286 0.726852 81.0423
lradius 33.6601
lwrist -2.66756
lhand -13.3839 28.2341
lfingers 7.12502
lthumb 12.7231 57.8265
rfemur -12.5957 -1.692 20.3409
rtibia 27.0121
rfoot 20.6777 -9.32769
rtoes 12.4641
lfemur -15.8674 1.68854 -17.8811
ltibia 29.1913
lfoot 22.9467 -8.13731
ltoes 1.9869
155
root 1.01835 22.4294 -16.4923 4.39972 0.628236 -0.841778
lowerback 10.2402 -0.132825 0.0656303
upperback 0.753341 -0.0411574 2.43739
thorax -4.95875 0.00366344 2.51464
lowerneck -19.3843 -4.42059 -9.22223
upperneck 11.893 -4.59512 6.6128
head 7.1761 -2.03242 3.12116
rclavicle -8.44835e-015 -3.97569e-015
rhumerus -32.6321 -4.64351 -76.0081
rradius 33.0036
rwrist 7.33755
rhand -16.8155 12.3321
rfingers 7.12502
rthumb 9.41341 -17.4376
lclavicle -8.44835e-015 -3.97569e-015
lhumerus -28.9678 0.830475 80.8684
lradius 33.3106
lwrist -2.1182
lhand -14.6785 27.1153
lfingers 7.12502
lthumb 11.4748 56.7813
rfemur -12.5341 -1.37174 20.3817
rtibia 26.6523
rfoot 20.3279 -8.96852
rtoes 10.6936
lfemur -15.7608 1.39586 -17.7406
ltibia 28.7689
lfoot 22.8114 -7.75554
ltoes 2.62083
156
root 1.0195 22.3777 -16.4905 4.54258 0.630426 -0.818119
lowerback 9.95328 -0.117981 0.0116884
upperback 0.648004 -0.0277468 2.47088
thorax -4.90904 0.0120902 2.57653
lowerneck -19.1782 -4.45767 -9.22156
upperneck 11.9735 -4.65938 6.56035
head 7.17224 -2.07211 3.09772
rclavicle 4.57205e-015 1.98785e-014
rhumerus -32.7364 -4.60301 -75.88
rradius 32.9381
rwrist 6.63789
rhand -18.7248 14.1265
rfingers 7.12502
rthumb 7.57077 -15.718
lclavicle 4.57205e-015 1.98785e-014
lhumerus -28.8707 1.2962 80.5414
lradius 33.4382
lwrist -3.79083
lhand -12.6918 29.5012
lfingers 7.12502
lthumb 13.3902 59.0509
rfemur -12.4609 -1.2197 20.3042
rtibia 26.2381
rfoot 19.9586 -8.49829
rtoes 9.57862
lfemur -15.7305 0.983596 -17.7486
ltibia 28.2916
lfoot 22.2255 -7.44672
ltoes 0.999761
157
root 1.02456 22.3196 -16.4839 4.61846 0.789009 -0.705895
lowerback 9.72909 -0.182567 -0.0142515
upperback 0.55834 -0.118604 2.45401
thorax -4.87319 -0.0320827 2.58468
lowerneck -19.1653 -4.57038 -9.26004
upperneck 12.1386 -4.80742 6.54545
head 7.23705 -2.14715 3.08116
rclavicle -2.38542e-015 2.38542e-015
rhumerus -32.8879 -4.7817 -75.6345
rradius 33.2484
rwrist 7.26046
rhand -20.6377 16.3914
rfingers 7.12502
rthumb 5.72414 -13.5113
lclavicle -2.38542e-015 2.38542e-015
lhumerus -28.9927 1.05855 80.5336
lradius 32.8124
lwrist -0.848801
lhand -17.1461 23.9314
lfingers 7.12502
lthumb 9.09437 53.7153
rfemur -12.2741 -1.21194 20.1003
rtibia 25.8317
rfoot 19.3869 -8.46213
rtoes 10.5843
lfemur -15.6006 0.411922 -17.8652
ltibia 27.7837
lfoot 21.2685 -7.16707
ltoes -0.602898
158
root 1.02675 22.2473 -16.4815 4.83497 0.876564 -0.638516
lowerback 9.39269 -0.240811 -0.0432141
upperback 0.406783 -0.201398 2.44071
thorax -4.83931 -0.0718333 2.59611
lowerneck -18.895 -4.61341 -9.31185
upperneck 12.1576 -4.88569 6.58728
head 7.20736 -2.18831 3.09643
rclavicle 5.76476e-015 3.18055e-015
rhumerus -33.1497 -4.87113 -75.4853
rradius 33.59
rwrist 7.59025
rhand -21.1404 17.8631
rfingers 7.12502
rthumb 5.23877 -12.0521
lclavicle 5.76476e-015 3.18055e-015
lhumerus -29.037 1.519 80.1523
lradius 33.0561
lwrist -1.77878
lhand -15.2305 25.3556
lfingers 7.12502
lthumb 10.9424 55.0504
rfemur -12.387 -0.997462 19.9541
rtibia 25.4519
rfoot 18.8667 -8.62486
rtoes 11.0751
lfemur -15.6083 0.0039752 -17.9248
ltibia 27.2387
lfoot 20.7515 -6.85989
ltoes -0.447081
159
root 1.02502 22.1591 -16.4875 5.08639 0.819543 -0.688731
lowerback 9.05375 -0.250866 -0.0243261
upperback 0.27768 -0.213805 2.46164
thorax -4.78349 -0.0778303 2.6063
lowerneck -18.831 -4.56982 -9.30664
upperneck 12.3747 -4.84107 6.57632
head 7.26375 -2.17 3.09912
rclavicle -3.57812e-015 7.95139e-016
rhumerus -33.2664 -4.96118 -75.3632
rradius 33.7751
rwrist 7.82173
rhand -20.0412 17.3405
rfingers 7.12502
rthumb 6.30001 -12.5458
lclavicle -3.57812e-015 7.95139e-016
lhumerus -28.8874 1.69586 79.8821
lradius 33.0695
lwrist -1.80171
lhand -15.1205 25.6508
lfingers 7.12502
lthumb 11.0485 55.34
rfemur -12.5829 -0.581839 19.9549
rtibia 25.0359
rfoot 18.5151 -8.46148
rtoes 10.1193
lfemur -15.6726 -0.262009 -17.8384
ltibia 26.7176
lfoot 20.2228 -6.4654
ltoes -0.238334
160
root 1.02799 22.0616 -16.489 5.16662 0.734969 -0.668199
lowerback 8.83034 -0.25157 -0.00010645
upperback 0.241535 -0.215874 2.43775
thorax -4.69581 -0.0801084 2.56556
lowerneck -19.0838 -4.47924 -9.34176
upperneck 12.9081 -4.71826 6.64277
head 7.47399 -2.10502 3.14287
rclavicle -7.25564e-015 -3.10104e-014
rhumerus -33.119 -4.91199 -75.3367
rradius 33.6868
rwrist 7.78949
rhand -18.0903 14.6367
rfingers 7.12502
rthumb 8.18317 -15.1848
lclavicle -7.25564e-015 -3.10104e-014
lhumerus -28.6888 1.69834 79.6543
lradius 32.8213
lwrist -1.17589
lhand -16.056 24.2378
lfingers 7.12502
lthumb 10.1461 53.9731
rfemur -12.5096 -0.323659 19.8674
rtibia 24.5763
rfoot 18.2244 -7.82761
rtoes 8.81389
lfemur -15.5551 -0.587228 -17.8651
ltibia 26.2721
lfoot 19.4012 -5.95322
ltoes -0.818946
161
root 1.03105 21.9552 -16.4879 5.17986 0.732582 -0.71168
lowerback 8.66096 -0.296728 0.0640794
upperback 0.211612 -0.270063 2.46549
thorax -4.62969 -0.108342 2.56334
lowerneck -18.9752 -4.44872 -9.44402
upperneck 13.0019 -4.68146 6.74338
head 7.48881 -2.08575 3.19947
rclavicle -1.18277e-014 2.62396e-014
rhumerus -32.9154 -4.46628 -75.4823
rradius 33.2998
rwrist 6.28809
rhand -16.5367 11.8894
rfingers 7.12502
rthumb 9.6824 -17.8681
lclavicle -1.18277e-014 2.62396e-014
lhumerus -28.5741 1.74078 79.4556
lradius 32.2551
lwrist -0.274014
lhand -17.8003 20.7133
lfingers 7.12502
lthumb 8.46311 50.5237
rfemur -12.358 -0.13691 19.8591
rtibia 24.1356
rfoot 17.6854 -7.60237
rtoes 7.87076
lfemur -15.3558 -0.918783 -17.8349
ltibia 25.8803
lfoot 18.5668 -5.56444
ltoes -1.7851
